<svg xmlns="http://www.w3.org/2000/svg" width="1024" viewBox="0 0 768 768" height="1024" version="1.0"><defs><clipPath id="a"><path d="M93 0h582.305v768H93Zm0 0"/></clipPath></defs><g clip-path="url(#a)"><path fill="#18422d" d="M383.23.625h1.957c19.313.047 37.907 1.75 56.883 5.473l2.34.449c44.61 8.668 87.586 28.277 122.574 57.437l2.438 2c8.742 7.227 16.945 15.047 24.98 23.043l1.383 1.371c3.246 3.254 6.293 6.653 9.281 10.149l1.274 1.484c6.64 7.832 12.793 15.895 18.531 24.41l1.234 1.832c5.899 8.793 11.348 17.747 16.282 27.114l.793 1.496c7.84 14.91 14.066 30.394 19.011 46.488l.692 2.215c14.539 47.008 16.926 98.27 6.164 146.309l-.485 2.222a277.498 277.498 0 0 1-19.222 56.856 444.94 444.94 0 0 0-2.367 5.214c-10.989 24.27-25.614 47.172-40.836 68.977a537.927 537.927 0 0 0-3.414 5.004c-4.118 6.082-8.305 12.078-12.7 17.965-4.164 5.574-8.109 11.273-11.996 17.043a555.708 555.708 0 0 1-15.84 22.258c-2.222 2.968-4.43 5.941-6.628 8.921l-1.329 1.793c-3.25 4.414-6.402 8.891-9.527 13.395a363.246 363.246 0 0 1-12.758 17.23c-4.953 6.391-9.824 12.836-14.668 19.313a1354.866 1354.866 0 0 1-9.324 12.297c-7.844 10.226-15.547 20.554-23.176 30.937-4.859 6.606-9.785 13.16-14.718 19.707-3.47 4.618-6.91 9.254-10.329 13.907-13.503 18.343-13.503 18.343-19.593 25.699-7.403 9.058-14.356 18.43-21.164 27.937-3.922 5.461-7.871 10.895-11.942 16.246l-.984 1.301c-3.633 4.68-7.367 7.656-12.79 10.082-4.468 1.621-8.202 1.824-12.882 1.09-5.496-1.277-10.352-4.11-14.527-7.883-5.77-6.07-10.57-13.144-15.57-19.847-3.512-4.696-7.122-9.309-10.762-13.903-1.036-1.312-2.07-2.625-3.098-3.937-3.2-4.098-6.43-8.172-9.688-12.223-5.125-6.363-10.046-12.855-14.906-19.422l-1.293-1.738c-4.719-6.352-9.398-12.727-13.941-19.207-7.942-11.317-16.266-22.344-24.66-33.328a1368.457 1368.457 0 0 1-10.61-14.09c-4.414-5.922-8.87-11.797-13.43-17.61-4.847-6.199-9.48-12.535-14.05-18.94-1.649-2.306-3.317-4.602-4.98-6.9a985.515 985.515 0 0 1-9.59-13.437 378.965 378.965 0 0 0-10.653-14.515c-4.078-5.278-7.957-10.664-11.777-16.133-2.399-3.426-4.852-6.809-7.309-10.192a627.774 627.774 0 0 1-10.168-14.449 886.504 886.504 0 0 0-7.636-10.973l-1.149-1.62a3087.307 3087.307 0 0 0-5.812-8.192c-6.551-9.227-12.942-18.523-18.805-28.2a317.313 317.313 0 0 0-3.883-6.206c-29.293-46.153-45.86-96.801-48.59-151.438-2.09-51.41 8.723-102.691 32.5-148.383 10.098-19.12 22.715-37.503 37.54-53.28a176.54 176.54 0 0 0 4.476-5.032c3.441-3.953 7.148-7.629 10.863-11.328l2.082-2.094c3.895-3.887 7.863-7.621 12.055-11.187.797-.696 1.594-1.391 2.387-2.086 5.414-4.657 10.996-8.903 16.855-12.977 1.281-.902 2.547-1.82 3.805-2.754 17.574-12.926 36.715-23.535 56.93-31.691l2.374-.961c25.711-10.262 53.72-17.715 81.407-19.606l2.613-.195c7.957-.555 15.883-.719 23.855-.707m-40.18 51.938-3.25.605a298.267 298.267 0 0 0-7.695 1.582l-2.703.59c-13.937 3.113-27.136 8.055-40.43 13.215l-1.566.593c-13.308 5.063-25.781 12.856-37.289 21.168a426.618 426.618 0 0 1-4.902 3.465c-7.656 5.387-14.805 11.149-21.742 17.43l-1.207 1.074c-11.227 10.016-22.5 20.469-31.364 32.668a241.767 241.767 0 0 1-3.066 4.082 174.348 174.348 0 0 0-12.277 18.61 606.359 606.359 0 0 1-2.543 4.37c-20.563 35.442-29.54 75.505-29.711 116.282.199 46.89 12.48 89.473 35.988 129.863l1.16 2.012c7.984 13.851 17.082 26.992 26.402 39.976l1.165 1.622c2.457 3.386 5.078 6.562 7.835 9.707 3.684-1.172 6.211-3.286 9.141-5.711a960.36 960.36 0 0 1 3.086-2.512l1.547-1.262c3.726-3.012 7.55-5.89 11.36-8.793l1.73-1.32c3.347-2.555 6.695-5.106 10.047-7.656 2.77-2.106 5.53-4.215 8.293-6.332 7.003-5.352 14.039-10.653 21.152-15.864 4.48-3.289 8.902-6.652 13.305-10.043 3.984-3.058 8.02-6.043 12.07-9.007 5.48-4.012 10.863-8.125 16.21-12.309 4.595-3.598 9.243-7.11 13.927-10.59 1.937-1.441 3.87-2.887 5.804-4.332l1.536-1.148c2.843-2.13 5.66-4.29 8.457-6.48l1.832-1.434c1.16-.914 2.316-1.829 3.472-2.747 6.434-5.062 12.344-8.714 20.457-10.28 7.164-.653 13.86-.044 20.54 2.894 5.171 2.922 9.702 6.84 14.292 10.582 3.04 2.472 6.16 4.816 9.305 7.152 10.402 7.742 20.664 15.688 30.926 23.621a1260.81 1260.81 0 0 0 25.183 18.938c5.274 3.867 10.489 7.777 15.606 11.847 3.594 2.844 7.265 5.567 10.965 8.274a1042.692 1042.692 0 0 1 29.277 22.23l1.262.996c1.68 1.32 3.36 2.649 5.035 3.973a799.506 799.506 0 0 0 4.031 3.172l2.36 1.86c1.972 1.386 3.703 2.273 5.972 3.042 3.64-5.008 7.262-10.027 10.871-15.058 5.86-8.207 11.207-16.758 16.547-25.309l1.59-2.535c22.094-35.426 35.863-71.106 41.828-112.477l.418-2.793c.508-4.183.48-8.375.496-12.582l.012-2.714c.008-1.891.015-3.79.015-5.684.008-2.836.032-5.668.055-8.504.07-15.605-1.37-30.723-4.664-45.984-.297-1.391-.297-1.391-.598-2.813-3.886-17.808-10.09-34.594-18.574-50.734a401.28 401.28 0 0 1-2.383-4.656c-7.488-14.637-16.847-28.348-27.332-41.004l-1.812-2.215c-5.934-7.172-12.313-13.922-18.754-20.637l-1.79-1.898-1.257-1.149h-1.523v-1.52c-1.153-1.199-1.153-1.199-2.668-2.429-3.426-2.902-3.426-2.902-4.75-4.094-3.762-3.363-7.676-6.36-11.817-9.234l-2.004-1.395c-17.949-12.34-37.05-22.148-57.351-30.004a350.514 350.514 0 0 1-5.07-2.011c-13.465-5.207-28-7.883-42.157-10.532l-1.566-.293c-8.606-1.601-16.82-2.585-25.57-2.648l-2.598-.02-5.45-.023a634.454 634.454 0 0 1-5.452-.047c-12.883-.16-25.028.86-37.676 3.32m38.047 359.56-1.637 1.144-1.82 1.27c-2.899 2.112-5.735 4.304-8.551 6.526-1.207.95-2.418 1.899-3.63 2.848l-1.757 1.375c-6.332 4.938-12.84 9.621-19.355 14.305-4.192 3.023-8.293 6.133-12.371 9.305-3.184 2.457-6.434 4.828-9.68 7.207-6.274 4.601-12.465 9.296-18.633 14.039-3.258 2.5-6.523 4.988-9.785 7.476l-2.05 1.567c-4.61 3.503-9.235 6.992-13.872 10.457a959.049 959.049 0 0 0-11.5 8.761 958.72 958.72 0 0 1-5.95 4.559l-1.745 1.332c-1.121.855-2.246 1.707-3.371 2.562a228.7 228.7 0 0 0-9.07 7.274c.69 3.437 2.609 5.754 4.714 8.476l1.235 1.622c3.44 4.507 6.93 8.98 10.421 13.453 7.07 9.066 14.11 18.168 20.825 27.5 3.34 4.586 6.765 9.11 10.175 13.64 1.786 2.371 3.559 4.742 5.32 7.125 3.77 5.078 7.614 10.075 11.622 14.97 8.703 10.616 16.812 21.64 24.805 32.796 8.027 11.187 16.101 22.312 24.753 33.027 3.922 4.875 7.66 9.883 11.391 14.903 1.238 1.664 2.48 3.32 3.73 4.976l1.262 1.684 2.406 3.191 1.09 1.457.961 1.274c.828 1.132 1.61 2.3 2.39 3.468 2.325-1.011 3.63-1.988 5.134-4.02l1.16-1.542 1.226-1.672 2.653-3.535 1.383-1.848c2.253-2.996 4.558-5.945 6.867-8.898 3.047-3.906 6.082-7.824 9.094-11.758a426.206 426.206 0 0 1 7.105-9.02c4.312-5.336 8.379-10.793 12.324-16.406 7.637-10.816 15.434-21.48 23.824-31.722 4.344-5.32 8.5-10.778 12.649-16.25 3.7-4.875 7.433-9.72 11.21-14.536a776.863 776.863 0 0 0 15.075-19.886 463.357 463.357 0 0 1 7.594-10.098c4.5-5.809 8.847-11.73 13.183-17.668a506.9 506.9 0 0 1 3.688-4.941l2.12-2.856.997-1.297c1-1.312 1-1.312 2.098-3.324l.093-1.559c-1.328-2.312-3.285-3.832-5.328-5.484l-1.36-1.125c-3.304-2.7-6.698-5.246-10.175-7.719-2.691-1.933-5.34-3.922-7.984-5.914-4.504-3.386-9.028-6.75-13.567-10.093l-1.824-1.34a5203.802 5203.802 0 0 0-9.344-6.864c-6.437-4.73-12.832-9.5-19.148-14.39-8.648-6.684-17.34-13.293-26.223-19.656a581.28 581.28 0 0 1-10.965-8.067 1736.544 1736.544 0 0 0-18.894-14.02 755.717 755.717 0 0 1-4.899-3.628c-.953-.703-1.91-1.407-2.863-2.106l-1.297-.976c-1.066-.778-2.191-1.48-3.32-2.168-2.89-.235-2.89-.235-4.61.82"/></g><path fill="#18432d" d="M424.313 144.531c13.972 6.723 27.605 16.414 36.656 29.184.816 1.246 1.625 2.5 2.426 3.758l1.32 1.91c9.047 13.402 13.187 28.922 14.465 44.914 1.11 16.668-.887 32.777-8.07 47.992-7.145 14.352-17.317 26.512-30.633 35.547-13.543 8.598-29.332 17-45.63 18.164-19.878.766-37.902-2.027-55.632-11.367-14.762-8.098-27.508-19.297-36.531-33.57-5.051-8.758-8.934-17.993-11.188-27.852l-.488-2.031c-3.926-16.782-2.715-34.508 2.09-50.961 4.691-15.145 12.824-27.63 24.058-38.739 5.856-5.414 12.106-9.792 19.043-13.71l2.094-1.208c26.574-14.304 58.785-14.632 86.02-2.03M356 192.706c-6.621 5.063-12.164 11.3-15.52 18.996-3.148 8.797-3.437 17.59-1.808 26.703 1.777 9.13 5.254 16.805 11.285 23.957 6.453 6.793 13.566 10.582 22.36 13.407 8.554 2.261 16.55 1.968 25.019-.27 8.187-2.293 14.14-5.867 20.36-11.625 5.777-5.98 9.417-12.96 11.66-20.918 2.007-8.633 2.187-17.594-.31-26.133-2.769-8.176-7.124-14.883-13.398-20.879-5.851-5.004-12.757-8.914-20.332-10.52-13.785-1.667-27.55-.777-39.316 7.282M334.676 559.07c4.633-.02 9.265-.035 13.898-.043 1.574-.004 3.149-.007 4.719-.015a1984.6 1984.6 0 0 1 6.82-.016l2.102-.012h2.031l1.754-.007c3.277.136 6.54.527 9.805.855v41.129l-19.707.094-6.227.043-4.86.011-2.57.024h-2.433l-2.121.012-1.688-.184-1.523-1.524c-.867-4.238-.875-8.43-.863-12.742l-.004-2.11c0-1.46.003-2.92.003-4.382.004-2.238 0-4.473-.003-6.707 0-1.426 0-2.848.003-4.273l-.003-2.02.003-1.89.004-1.653c.102-1.61.418-3.043.86-4.59m77.554-.101 1.665-.004c1.128 0 2.257.004 3.39.004 1.727.004 3.45 0 5.176-.004 1.113 0 2.223 0 3.336.004l2.992.004c2.258.082 4.227.386 6.426.859a10131.65 10131.65 0 0 1 .055 20.652c.011 2.512.015 5.024.02 7.54l.01 2.363v2.215l.005 1.941c-.094 1.95-.426 3.754-.852 5.656-2.27.758-3.742.856-6.11.848h-2.39l-2.504-.012-2.308-.004c-2.848-.004-5.692-.011-8.54-.023l-19.277-.047v-41.129c13.73-.86 13.73-.86 18.906-.863m-38.71-57.024c1.222 1.09 1.222 1.09 2.285 3.047.343 2.504.32 4.992.304 7.52l.004 2.218a459.4 459.4 0 0 1-.011 4.641c-.012 2.367 0 4.734.015 7.102 0 1.504-.004 3.007-.008 4.511l.012 2.145-.02 2-.007 1.758c-.29 1.617-.29 1.617-1.211 3.328l-1.363 1.336c-1.75.367-1.75.367-3.825.347h-2.36l-2.534-.05-2.606-.012c-2.746-.02-5.492-.055-8.242-.094-1.86-.015-3.723-.031-5.582-.043-4.566-.035-9.133-.082-13.695-.148-.719-2.149-.863-3.485-.875-5.711l-.016-2.098v-2.258l-.008-2.324a1010.69 1010.69 0 0 1-.004-4.867c-.003-2.484-.015-4.969-.03-7.453-.005-1.578-.005-3.153-.005-4.73l-.02-2.25.009-2.106-.004-1.844c.21-1.867.78-3.11 1.714-4.726 31.797-1.758 31.797-1.758 38.083.761m43.984-1.62 2.945-.009 2.852.004 2.558.004c2.668.102 5.207.356 7.832.86l1.524 1.523c.183 1.656.183 1.656.172 3.738v2.356l-.024 2.55-.008 2.606c-.007 2.758-.027 5.512-.046 8.266-.008 1.867-.016 3.73-.02 5.593-.016 4.579-.043 9.157-.074 13.735-5.492.058-10.98.097-16.473.125-1.867.011-3.734.027-5.605.047-2.68.027-5.364.043-8.047.05l-2.54.036h-2.355l-2.078.015c-1.746-.273-1.746-.273-3.097-1.3-.934-1.258-.934-1.258-1.454-3.352-.257-2.621-.343-5.184-.343-7.82l-.004-1.512c0-1.055 0-2.106.004-3.16.004-1.582 0-3.168-.004-4.758-.008-12.418-.008-12.418.867-16.453l1.426-1.57c7.004-2.106 14.754-1.594 21.992-1.575"/><path fill="#58534a" d="M383.422.766c19.875-.41 39.148 1.507 58.648 5.332l2.34.449c46.238 8.984 89.992 29.719 125.906 60.246l1.996 1.762h-2.28c-1.41-.985-1.41-.985-3.098-2.426-17.801-14.621-37.633-26.824-58.532-36.445-1.32-.61-2.636-1.227-3.949-1.852-24.875-11.691-52.168-17.625-79.125-22.105-1.992-.34-3.98-.7-5.965-1.075-11.851-2.175-23.93-2.523-35.941-3.125Zm0 0"/><path fill="#554d45" d="M379.137 47.848h1.66c21.883.05 42.648 2.707 63.89 7.808l1.657.395c5.554 1.34 11 2.699 16.289 4.886l1.55.63c1.614.656 3.223 1.32 4.829 1.992 3.46 1.437 6.922 2.855 10.425 4.187 5.485 2.184 10.708 4.961 15.95 7.664l1.652.848c1.594.824 3.184 1.652 4.774 2.484l1.488.77a94.244 94.244 0 0 1 3.512 1.992l.761 1.523c-4.207-1.199-7.765-3.195-11.57-5.285-8.852-4.75-18.031-8.52-27.39-12.152a314.247 314.247 0 0 1-5.098-2.028c-13.47-5.203-28-7.878-42.153-10.527l-1.566-.293c-8.606-1.601-16.82-2.586-25.57-2.648l-2.598-.02-5.45-.023a634.413 634.413 0 0 1-5.452-.047c-12.88-.16-25.036.844-37.676 3.32l-1.762.336a335.568 335.568 0 0 0-9.613 1.996l-2.63.559c-4.534.984-8.937 2.101-13.323 3.617-1.614.344-1.614.344-3.348.023l-1.313-.44c15.672-5.5 32.282-8.661 48.747-10.661l1.699-.223c5.867-.68 11.73-.691 17.629-.683"/><path fill="#413f36" d="M615.73 217.082c1.524 1.523 1.524 1.523 2.16 3.543l.626 2.55.691 2.81.711 2.949.71 2.886c.665 2.703 1.313 5.407 1.958 8.11l.45 1.882c3.644 15.801 4.405 31.422 4.359 47.579l-.008 2.492c-.04 9.113-.219 18.18-.996 27.262h-1.52l.516 2.402c.597 4.812-.809 9.328-1.946 13.973-1.949 8.12-1.949 8.12-3.14 16.375h-1.524l-.191 2.046c-.516 3.715-1.742 7.211-2.902 10.762-.762 2.379-.762 2.379-1.051 4.707-.664 3.547-2.36 6.524-3.95 9.738-1.132 2.38-1.132 2.38-1.43 4.805-.429 2.508-1.273 3.961-2.663 6.074-1.688 2.567-2.567 4.532-3.047 7.567-.93 2.261-2.02 3.687-3.809 5.332l-1.285 1.289-1 .996c1.043-3.59 2.578-6.785 4.25-10.113 11.504-23.028 17.485-47.016 21.496-72.262l.246-1.555c.23-1.472.45-2.945.668-4.422l.426-2.84c.504-4.167.473-8.343.488-12.535l.012-2.71c.008-1.899.016-3.794.016-5.688.008-2.836.031-5.668.054-8.504.075-15.797-1.445-31.023-4.804-46.46l-.574-2.75c-.98-4.63-2.09-9.15-3.579-13.645-.418-1.598-.418-1.598-.418-4.645"/><path fill="#4c463d" d="m153.398 214.035 1.524.762-.371 1.215c-4.973 16.425-7.778 32.754-9.531 49.816l-.31 2.969c-3.534 42.117 3.79 85.621 21.552 123.937 2.445 5.145 5.093 10.157 8.043 15.036a72.184 72.184 0 0 1 1.941 3.535l-.762 1.523c-10.992-16.215-17.843-34.71-23.609-53.316l-.563-1.793c-2.652-8.645-4.19-17.492-5.722-26.387l-.3-1.754c-2.09-12.2-2.712-23.965-2.696-36.332v-2.367c.043-26.2 2.097-51.965 10.804-76.844"/><path fill="#393131" d="M334.676 559.07h33.512v.762l-31.989.762v37.32c4.488 1.363 4.488 1.363 8.801 1.695h1.922l1.96-.023 1.845-.004c2.25-.008 4.5-.031 6.75-.05l15.28-.095.763-38.843-3.047-.762h5.332v41.129l-19.707.094-6.227.043-4.86.011-2.57.024h-2.433l-2.121.012-1.688-.184-1.523-1.524c-.867-4.238-.875-8.43-.863-12.742l-.004-2.11c0-1.46.003-2.92.003-4.382.004-2.238 0-4.473-.003-6.707 0-1.426 0-2.848.003-4.273l-.003-2.02.003-1.89.004-1.653c.098-1.543.098-1.543.86-4.59"/><path fill="#453b39" d="M373.52 501.945c1.222 1.09 1.222 1.09 2.285 3.047.343 2.504.32 4.992.304 7.52l.004 2.218a459.4 459.4 0 0 1-.011 4.641c-.012 2.367 0 4.734.015 7.102 0 1.504-.004 3.007-.008 4.511l.012 2.145-.02 2-.007 1.758c-.29 1.617-.29 1.617-1.211 3.328l-1.363 1.336c-1.75.367-1.75.367-3.825.347h-2.36l-2.534-.05-2.606-.012c-2.746-.02-5.492-.055-8.242-.094-1.86-.015-3.723-.031-5.582-.043-4.566-.035-9.133-.082-13.695-.148-.719-2.149-.863-3.485-.875-5.711l-.016-2.098v-2.258l-.008-2.324a1010.69 1010.69 0 0 1-.004-4.867c-.003-2.484-.015-4.969-.03-7.453-.005-1.578-.005-3.153-.005-4.73l-.02-2.25.009-2.106-.004-1.844c.21-1.867.78-3.11 1.714-4.726 31.797-1.758 31.797-1.758 38.083.761m-38.082 2.285c-.149 4.836-.286 9.676-.41 14.516-.048 1.649-.094 3.297-.145 4.942-.07 2.367-.13 4.73-.192 7.093l-.074 2.239-.047 2.078-.05 1.832c.054 1.812.054 1.812 1.68 3.86 1.538.35 1.538.35 3.34.308l2.093.027 2.27-.004 2.327.012c1.63.004 3.258.004 4.883-.004 2.492-.008 4.98.016 7.473.039 1.582.004 3.16 0 4.738 0l2.262.023c2.95-.027 5.031-.062 7.64-1.5 1.622-3.004 1.477-5.8 1.434-9.164l.004-2.12a558 558 0 0 0-.027-4.434c-.02-2.266-.02-4.532-.008-6.797-.004-1.438-.008-2.871-.016-4.309l.004-2.058-.027-1.907-.012-1.68c-.2-1.538-.2-1.538-1.285-2.777-1.406-1.21-1.406-1.21-4.082-1.492-3.262-.297-6.52-.371-9.793-.375l-1.797-.008c-1.242-.004-2.484-.004-3.726-.004a922.665 922.665 0 0 1-5.696-.03c-1.21-.005-2.422-.005-3.637-.005l-1.71-.015c-2.926.011-4.872.3-7.414 1.714"/><path fill="#58514b" d="M399.82 355.79c5.172 2.92 9.703 6.839 14.293 10.581 3.04 2.473 6.16 4.817 9.305 7.152 10.402 7.743 20.664 15.688 30.926 23.622a1261.06 1261.06 0 0 0 25.187 18.937c5.11 3.746 10.196 7.516 15.188 11.41l1.351 1.047c3.032 2.387 3.032 2.387 3.887 4.094-3.418-1.125-5.922-3.035-8.664-5.285a322.857 322.857 0 0 0-11.52-8.852l-1.441-1.055a549.72 549.72 0 0 0-6.965-4.988 280.193 280.193 0 0 1-14.972-11.3 465.157 465.157 0 0 0-10.754-8.415 1614.015 1614.015 0 0 1-15.403-11.875 1557.353 1557.353 0 0 0-10.258-7.925 404.298 404.298 0 0 1-8.52-6.711c-6.66-5.325-12.312-9.356-20.757-11.047-7.066-.621-13.41-.125-20.23 2.047l-2.106 1.27-1.703 1.015-1.523-.762c4.375-3.254 8.796-4.824 14.14-5.855 7.164-.653 13.86-.043 20.54 2.894"/><path fill="#5a524d" d="M128.262 428.824c2.39 2.04 3.57 4.52 5 7.285 1.734 3.457 1.734 3.457 4.14 6.426a118.3 118.3 0 0 1 2.094 3.856c1.871 3.504 3.918 6.777 6.207 10.023l.84 1.352v1.523h1.523v2.285l1.524.762c1.8 2.457 3.34 4.57 3.808 7.617h1.524l.762 2.285 1.57 1.524 1.476 1.523v2.285l1.524.762c10.34 12.738 10.34 12.738 12.184 18.281l1.523 1.524.715 1.949.808 1.86 2.286.761v2.285h1.523v2.285l1.434.582c1.613.942 1.613.942 2.445 2.262l.644 1.535c1.395 3.031 3.211 5.262 5.38 7.805a80.415 80.415 0 0 1 1.62 2.809c1.204 2.402 1.204 2.402 2.5 3.578 1.547 1.574 2.579 3.3 3.735 5.183a111.282 111.282 0 0 0 6.246 9c2.02 2.711 3.855 5.547 5.703 8.375-1.715-.73-2.898-1.36-4.156-2.75l-1.035-1.465-1.18-1.66-1.246-1.789-1.32-1.863c-1.34-1.899-2.68-3.8-4.012-5.707a971.673 971.673 0 0 0-2.305-3.25c-4.539-6.399-9.031-12.828-13.527-19.258-2.867-4.101-5.746-8.2-8.637-12.289l-1.121-1.59c-1.89-2.676-3.785-5.351-5.688-8.023-6.543-9.219-12.925-18.508-18.793-28.172a515.504 515.504 0 0 0-4.085-6.594c-3.887-6.2-7.754-12.387-11.204-18.84l-.765-1.426c-1.664-3.18-1.664-3.18-1.664-4.906"/><path fill="#4a3d3c" d="m417.504 500.324 2.945-.008 2.852.004 2.558.004c2.668.102 5.207.356 7.832.86l1.524 1.523c.183 1.656.183 1.656.172 3.738v2.356l-.024 2.55-.008 2.606c-.007 2.758-.027 5.512-.046 8.266-.008 1.867-.016 3.73-.02 5.593-.016 4.579-.043 9.157-.074 13.735-5.492.058-10.98.097-16.473.125-1.867.011-3.734.027-5.605.047-2.68.027-5.364.043-8.047.05l-2.54.036h-2.355l-2.078.015c-1.746-.273-1.746-.273-3.097-1.3-.934-1.258-.934-1.258-1.454-3.352-.257-2.621-.343-5.184-.343-7.82l-.004-1.512c0-1.055 0-2.106.004-3.16.004-1.582 0-3.168-.004-4.758-.008-12.418-.008-12.418.867-16.453l1.426-1.57c7.004-2.106 14.754-1.594 21.992-1.575m-17.328 1.621v1.524l-2.235.285-2.332.476c-1.992 3.977-1.004 10.34-1.03 14.77a334.64 334.64 0 0 1-.063 4.434c-.04 2.132-.059 4.265-.067 6.398l-.054 1.996c.007 1.785.093 3.402.453 5.152 1.293 2.485 1.293 2.485 3.808 3.81 2.633.491 5.192.444 7.867.37l2.29-.015c2.406-.02 4.812-.07 7.218-.118 1.633-.02 3.266-.035 4.899-.05 4-.043 8-.106 12-.188 1.87-3.637 1.77-7.078 1.777-11.07l.016-2.114c.007-1.472.011-2.94.011-4.414.004-2.25.032-4.496.059-6.746.008-1.433.008-2.863.012-4.293l.03-2.035c-.019-2.793-.097-4.62-1.483-7.078-2.454-1.383-4.266-1.441-7.051-1.441l-2.024.047-2.086.015c-2.195.02-4.394.05-6.59.094-1.492.016-2.98.027-4.472.043-3.652.031-7.3.086-10.95.148"/><path fill="#56544a" d="M425.977 145.355c5.054 2.516 9.843 5.418 14.57 8.508l-2.285 1.524-2.211-1.48c-15.399-10.09-31.563-15.005-49.871-16.208-13.453-.367-28.715 1.957-40.89 7.883-1.497.672-2.93 1.086-4.52 1.473l-2.286.715-.761 2.285c-1.743.722-3.489 1.156-5.309 1.64l-1.547.645-.762 2.285c-2.714.902-2.714.902-5.332 1.523 9.063-9.527 22.192-14.03 34.512-17.804 22.27-5.867 46.035-2.895 66.688 7.011"/><path fill="#483132" d="m412.363 558.996 1.692.004c1.718.004 3.441.012 5.164.02l3.578.011c2.867.008 5.738.024 8.61.04v.761l-1.739.055c-2.578.09-5.156.183-7.734.277l-2.735.09-2.594.098-2.406.082-1.836.16-.761.761c-1.133.06-2.27.086-3.407.075l-2.074-.008-2.183-.02-2.192-.011c-1.793-.008-3.582-.02-5.375-.036-.652 2.258-.855 4.258-.851 6.61v2.125l.011 2.273.004 2.344c.004 2.469.016 4.934.024 7.402l.011 5.024c.008 4.101.02 8.203.04 12.304 4.702.04 9.406.067 14.105.083 1.601.007 3.2.02 4.8.03 2.301.02 4.602.028 6.903.036l2.16.023c2.746 0 5.2-.093 7.883-.707l1.469-.988c1.363-3.41.87-7.656.863-11.289v-2.18c0-1.511 0-3.023-.004-4.535-.004-2.324 0-4.644.008-6.965 0-1.472-.004-2.941-.004-4.41l.004-2.113-.008-1.95v-1.718c-.012-1.473-.012-1.473-.86-2.922h2.286a10131.65 10131.65 0 0 1 .055 20.652c.011 2.512.015 5.024.02 7.54l.01 2.363v2.215l.005 1.941c-.098 1.95-.426 3.754-.852 5.656-2.27.758-3.742.856-6.11.848h-2.39l-2.504-.012-2.308-.004c-2.848-.004-5.692-.011-8.54-.023l-19.277-.047v-41.129c14.004-.879 14.004-.879 19.04-.836"/><path fill="#524941" d="M458.063 171.379c7.996 7.562 13.25 18.047 16.566 28.453 5.105 17.238 6.906 36.473 2.816 54.11-3.257 12.851-8.664 23.964-16.336 34.734l-.761-2.285c.714-1.293.714-1.293 1.859-2.805 8.223-11.754 13.273-25.629 14.898-39.848 1.254-19.593-1.296-38.27-9.695-56.086-2.226-4.46-5.012-8.527-7.894-12.582l-1.454-2.168Zm0 0"/><path fill="#59514c" d="m343.813 204.133 1.523.762-1.332 1.667c-3.762 5.622-5.14 13.086-5.64 19.72-.344 8.609 1.495 18.167 5.449 25.835 4.382 7.926 9.66 13.852 17.414 18.582 8.027 4.106 16.644 6.063 25.648 6.02 4.14-.356 8.043-1.426 12.035-2.535a65.684 65.684 0 0 1 7.36-1.5c-3.817 3.113-8.375 4.699-13.172 5.695-1.707.215-3.387.328-5.106.398l-2.164.118c-9.39.289-17.715-2.715-26.02-6.973-7.39-4.8-13.71-11.606-18.066-19.262-4.683-9.922-5.422-20.226-4.781-31.008.848-6.093 3.004-11.457 6.09-16.757Zm0 0"/><path fill="#4e4e45" d="M383.422.766c19.867-.41 39.156 1.488 58.648 5.332l2.414.476c10.528 2.098 20.82 4.817 31.098 7.903-1.215.828-1.215.828-3.047 1.523-2.27-.324-2.27-.324-4.933-1.05l-1.461-.384c-1.04-.277-2.079-.554-3.118-.836-2.761-.75-5.53-1.46-8.304-2.171l-1.692-.434c-8.144-2.078-16.39-3.586-24.668-5.027l-2.367-.426c-14.144-2.535-28.246-3.484-42.57-4.145Zm0 0"/><path fill="#534b42" d="m624.11 319.906 1.523 1.524c.172 5.398-1.403 10.882-2.668 16.09-1.153 4.789-2.156 9.468-2.664 14.375h-1.524l-.191 2.046c-.516 3.715-1.742 7.211-2.902 10.762-.762 2.379-.762 2.379-1.051 4.707-.664 3.547-2.36 6.524-3.95 9.738-1.132 2.38-1.132 2.38-1.43 4.805-.429 2.508-1.273 3.961-2.663 6.074-1.688 2.567-2.567 4.532-3.047 7.567-.93 2.261-2.02 3.687-3.809 5.332l-1.285 1.289-1 .996c1.043-3.59 2.578-6.785 4.25-10.113 11.95-23.918 17.785-49.075 22.41-75.192"/><path fill="#58534a" d="M611.922 473h1.523c-1.035 2.867-2.343 5.176-4.097 7.664l-1.547 2.203-1.64 2.32-3.348 4.77-1.625 2.305a772.402 772.402 0 0 0-5.024 7.254c-2.594 3.757-5.266 7.449-7.95 11.14-3.773 5.184-7.41 10.446-10.995 15.758a413.183 413.183 0 0 1-14.805 20.469v-2.285c.961-1.637.961-1.637 2.316-3.547.5-.707.997-1.418 1.512-2.149l1.645-2.3 3.375-4.786 1.71-2.418c2.31-3.289 4.563-6.613 6.817-9.937 2.848-4.18 5.742-8.313 8.758-12.375 7.785-10.5 15.332-21.215 22.152-32.367Zm0 0"/><path fill="#3e3e36" d="m272.98 428.063 1.524.761c-1.285 1.809-1.285 1.809-3.047 3.809a175.74 175.74 0 0 1-3.809 1.523l-1.046 1.426c-1.282 1.676-2.18 2.246-4 3.238l-2.57 1.43-.762 1.523c-1.336.84-2.72 1.551-4.118 2.286l-1.214.761-.762 1.524a144.357 144.357 0 0 1-3.809 2.285 120.573 120.573 0 0 0-13.347 10.535c-2.329 2.035-4.73 3.945-7.168 5.84l-1.313 1.027c-1.078.832-2.191 1.617-3.305 2.399h-1.523v1.523c-3.488 2.281-3.488 2.281-5.332 3.047-1.86-.57-1.86-.57-3.047-1.523l.762-1.524h3.047c1.91-1.137 1.91-1.137 3.902-2.762l1.187-.918c1.356-1.05 2.704-2.113 4.051-3.175 1.028-.801 2.055-1.602 3.082-2.399 1.7-1.32 3.399-2.64 5.094-3.965 6.434-5.015 12.926-9.949 19.422-14.882 3.703-2.817 7.402-5.637 11.101-8.457l4.063-3.094 1.723-1.313Zm0 0"/><path fill="#40503e" d="M435.977 629.902c.761 2.285.761 2.285.523 3.86-.523 1.472-.523 1.472-2.047 2.996l-.762 1.523h-1.523l-.254 1.367c-.566 1.872-1.25 2.766-2.555 4.204l-1.238 1.39-1.285 1.418c-2.598 2.93-4.902 5.727-6.856 9.14l-1.523 1.524c-2.117 2.528-2.117 2.528-3.809 5.332h-1.523l-.664 1.809c-.86 2-.86 2-2.383 3.523l-1.902 1.953c-1.906 1.856-1.906 1.856-3.43 2.618 1.246-2.805 2.977-5.059 4.856-7.477l1.011-1.3a553.3 553.3 0 0 1 6.692-8.407c4.68-5.8 9.078-11.742 13.34-17.855l1.656-2.36c1.23-1.75 2.453-3.5 3.676-5.258"/><path fill="#594843" d="M391.04 184.328c7.62.383 13.886 3.168 20.374 7.094 7.266 4.863 12.586 11.277 16.945 18.805 2.641 6.05 3.52 11.714 3.047 18.277h-.761l-.395-2.203c-1.762-9.418-3.867-16.95-9.957-24.613-5.531-6.403-12.023-11.231-20.078-14.075-3.027-.965-6.086-1.777-9.176-2.523Zm0 0"/><path fill="#41483c" d="m354.477 366.367 1.523.762-1.523 2.285h-1.524l-.762 2.285c-3.878 3.621-3.878 3.621-6.328 4.285l-1.289.286-.762 2.285h-3.042v2.285c-1.762 1.285-1.762 1.285-3.012 2.05-2.758 1.758-5.344 3.766-7.969 5.715-1.64 1.145-3.2 2.07-5.016 2.899v-2.285a54.145 54.145 0 0 1 4.38-3.524l1.359-1.02c1.386-1.027 2.773-2.054 4.164-3.073 1.508-1.125 3.015-2.254 4.52-3.38.734-.55 1.468-1.097 2.222-1.66 4.402-3.335 8.73-6.769 13.059-10.195"/><path fill="#46453b" d="M289.734 214.797h.762l.035 2.16c.387 26.457.387 26.457 7.746 51.734l.598 1.707-.762 2.286c-2.883-6.454-5.082-12.832-6.71-19.711l-.477-2c-1.563-6.864-2.078-13.485-2.047-20.516l-.008-2.023c.008-4.586.328-9.082.863-13.637"/><path fill="#59514c" d="M268.41 545.36c2.992 2.847 5.461 5.859 7.902 9.187l2.422 3.265 1.286 1.739c2.335 3.152 4.695 6.285 7.05 9.422l4.32 5.757c1.348 1.797 2.696 3.598 4.044 5.399l1.253 1.676 2.301 3.078a258.325 258.325 0 0 0 5.98 7.699l-.761 1.523a329.439 329.439 0 0 1-14.473-18.28l-2.421-3.282a4393.182 4393.182 0 0 1-5.399-7.332c-1.957-2.66-3.922-5.309-5.898-7.95l-1.493-2.007c-.953-1.277-1.906-2.555-2.863-3.828l-1.293-1.739-1.148-1.53-.809-1.274Zm0 0"/><path fill="#594843" d="M128.262 428.824c2.39 2.04 3.57 4.52 5 7.285 1.734 3.457 1.734 3.457 4.14 6.426a118.3 118.3 0 0 1 2.094 3.856c1.871 3.504 3.918 6.777 6.207 10.023l.84 1.352v1.523h1.523v2.285l1.524.762c1.8 2.457 3.34 4.57 3.808 7.617h1.524l.762 3.047c-1.684-.715-2.844-1.27-4.004-2.7l-.825-1.41-.964-1.609-1.016-1.754c-.742-1.25-1.48-2.496-2.227-3.742l-1.175-1.988c-1.637-2.735-3.336-5.434-5.032-8.133-3.402-5.426-6.73-10.863-9.75-16.508l-.765-1.426c-1.664-3.18-1.664-3.18-1.664-4.906"/><path fill="#4d4b43" d="M477.867 243.738h.762c-.055 11.98-4.809 24.094-10.613 34.414-2.13 3.625-4.465 7.102-6.907 10.524l-.761-2.285c.714-1.293.714-1.293 1.859-2.805 7.262-10.379 11.488-21.957 13.902-34.3.317-1.599.653-3.192.996-4.786Zm0 0"/><path fill="#564942" d="M572.313 69.316c2.292 1.036 3.953 2.211 5.777 3.938l1.562 1.473 1.66 1.59 1.723 1.636c15.692 14.973 15.692 14.973 22.031 22.594.871 1.016 1.746 2.031 2.618 3.047l1.953 2.285-.762 1.523c-3.574-3.492-7.004-7.047-10.25-10.847-1.156-1.36-1.156-1.36-2.469-2.563l-.992-1.062v-1.524l-3.047-1.523v-1.524h-1.523c-1.09-1.12-1.09-1.12-2.364-2.671-2.894-3.407-6.05-6.41-9.347-9.418-1.086-.997-2.172-1.997-3.254-2.997l-1.434-1.308c-1.12-1.125-1.12-1.125-1.883-2.649"/><path fill="#535148" d="m403.984 272.684 2.286.761c-9.278 4.543-17.125 6.012-27.418 5.332-4.082-.742-7.758-1.875-11.426-3.808 2.285-.762 2.285-.762 4.52-.336l2.667.668c9.805 2.168 17.621.875 27.086-1.856Zm0 0"/><path fill="#46473b" d="M99.32 230.027h.762c.258 4.25-.004 8.024-1.074 12.149-1.313 5.476-1.938 10.91-2.45 16.512l-.288 3.003a413.954 413.954 0 0 0-1.52 23.176h-.762c-.593-18.426 1.38-36.844 5.332-54.84"/><path fill="#545448" d="m353.715 140.152 2.285.762c-5.29 2.563-10.39 4.934-16.125 6.293l-1.39.563-.762 2.285c-1.743.722-3.489 1.156-5.309 1.64l-1.547.645-.762 2.285c-2.714.902-2.714.902-5.332 1.523 6.145-6.457 13.657-10.074 21.801-13.378l2.028-.829 1.906-.746 1.707-.668Zm0 0"/><path fill="#594843" d="M537.277 43.422c10.227 5.754 19.934 12.555 29.04 19.945l1.57 1.274c3.562 2.945 3.562 2.945 4.426 4.675-2.743-1.214-4.891-2.894-7.235-4.757-4.394-3.442-8.906-6.7-13.473-9.903l-1.886-1.336c-4.29-2.992-8.688-5.742-13.203-8.375Zm0 0"/><path fill="#513030" d="m193.766 70.84 1.523.762-6.094 6.093-1.066 1.094c-1.274 1.246-2.598 2.395-3.953 3.55-3.703 3.22-7.145 6.677-10.594 10.161l-1.898 1.91c-1.528 1.535-3.051 3.074-4.575 4.613v-2.285a67.927 67.927 0 0 1 4.118-4.367l1.289-1.285c.902-.898 1.808-1.797 2.718-2.688a805.349 805.349 0 0 0 4.102-4.07c4.43-4.394 8.902-8.687 13.668-12.726Zm0 0"/><path fill="#434c3e" d="m496.91 550.691.762 1.524-.809 1.086-1.05 1.437-1.043 1.418c-1.04 1.461-1.04 1.461-1.668 3.676l-1.809 1.762c-2.074 2.12-2.992 3.972-4.285 6.617-1.164 1.71-2.36 3.05-3.809 4.566-2.027.895-2.027.895-3.808 1.524 3.125-4.84 6.476-9.426 10.046-13.946l2.793-3.562 1.227-1.559a257.385 257.385 0 0 0 3.453-4.543"/><path fill="#594145" d="m323.25 156.148 1.523.762c-1.109 1.145-2.218 2.29-3.332 3.426l-1.875 1.93-1.648 1.5h-1.523l-.524 1.379c-1 1.667-1 1.667-3 3l-1.808.953c2.09-4.914 6.695-8.496 10.71-11.856Zm-14.473 14.47.762 1.523c-1.582 3.168-3.8 5.714-6.094 8.379v-2.286c1.168-1.886 1.168-1.886 2.668-3.949l1.5-2.082Zm-6.855 9.902v2.285Zm0 0"/><path fill="#41282d" d="M293.543 663.418c4.09 3.953 7.336 8.36 10.664 12.95l1.207 1.648c1.27 1.746 2.531 3.5 3.793 5.254l1.238 1.703 1.145 1.605 1.027 1.434c.73 1.3.73 1.3.73 3.586-5.273-6.34-10.066-13.016-14.85-19.73a293.105 293.105 0 0 0-2.29-3.15 134.067 134.067 0 0 1-2.664-3.777Zm0 0"/><path fill="#52574e" d="m153.398 214.035 1.524.762-.383 1.285c-2.36 7.969-4.586 15.852-5.984 24.047l-.489 2.086-1.523 1.523c.605-10.406 3.437-19.933 6.855-29.703"/><path fill="#405c46" d="m474.059 580.395 2.285.761c-1.047 1.524-1.047 1.524-2.285 3.047h-1.524l-.191 1.762-.57 2.047c-1.524 1.238-1.524 1.238-3.047 2.285l-.762 2.285-3.809 3.809v1.523c-1.523 1.238-1.523 1.238-3.047 2.285l-1.523-.761 1.426-1.844c4.394-5.7 8.746-11.43 13.047-17.2"/><path fill="#512932" d="M231.086 460.05h1.523c-.793 1.958-1.547 3.071-3.117 4.512l-1.832 1.395-1.832 1.414-1.594 1.059h-1.523v1.523c-3.488 2.281-3.488 2.281-5.332 3.047-1.86-.57-1.86-.57-3.047-1.523l.762-1.524h3.047c2.242-1.398 2.242-1.398 4.52-3.234l2.355-1.82a236.914 236.914 0 0 0 4.363-3.551Zm0 0"/><path fill="#4c2b30" d="m289.734 243.738 2.286.762.199 1.738c1.023 7.727 2.926 15.313 6.062 22.469l.594 1.691-.762 2.286c-3.867-8.653-8.379-19.332-8.379-28.946"/><path fill="#4e4e44" d="m354.477 366.367 1.523.762-1.523 2.285h-1.524l-.762 2.285c-3.878 3.621-3.878 3.621-6.328 4.285l-1.289.286-.762 2.285h-3.042v-1.524a93.664 93.664 0 0 1 4.71-3.715l2.653-1.992 1.293-.969a198.515 198.515 0 0 0 5.05-3.988"/><path fill="#3f3737" d="M334.676 559.07h33.512v.762l-31.989.762-1.523 3.047-.762-1.524Zm0 0"/><path fill="#3c262a" d="M100.844 354.941c2.265 4.215 3.367 8.754 4.472 13.38 1.18 4.874 2.579 9.613 4.18 14.366l.488 1.961-.761 2.286c-8.637-25.196-8.637-25.196-8.38-31.993"/><path fill="#493434" d="m471.773 268.113.762 1.524a73.716 73.716 0 0 1-2.664 5.332l-.836 1.543c-2.351 4.27-4.992 8.273-7.926 12.164l-.761-2.285c.738-1.348.738-1.348 1.906-2.903 2.496-3.527 4.367-7.203 6.2-11.101a89.964 89.964 0 0 1 1.796-3.512Zm0 0"/><path fill="#514640" d="M188.434 433.395c2.203 2.09 3.933 4.199 5.597 6.734l1.399 2.117 1.43 2.192c.945 1.437 1.89 2.875 2.835 4.308l1.258 1.926a97.553 97.553 0 0 0 3.477 4.808l-.762 1.524c-2.59-2.371-4.34-4.524-6.023-7.652-.942-1.684-1.993-3.266-3.07-4.868a334.657 334.657 0 0 1-4.52-6.855l-.95-1.473c-.671-1.238-.671-1.238-.671-2.761"/><path fill="#534840" d="m606.59 386.172 1.523 1.523-.808 1.2c-1.903 2.914-3.278 5.203-3.762 8.703-.93 2.257-2.02 3.683-3.809 5.328l-1.285 1.289-1 .996c1.2-3.918 2.82-7.54 4.57-11.234l.82-1.77.798-1.691.722-1.532c.707-1.289.707-1.289 2.23-2.812"/><path fill="#553a3a" d="M638.578 149.293c2.25 2.719 3.703 5.703 5.238 8.855l1.61 3.274.785 1.605c1.285 2.578 2.644 5.121 4.012 7.653l.543 1.46-.762 2.286-1.145-2.29-.75-1.503c-.55-1.094-1.097-2.192-1.644-3.29a733.312 733.312 0 0 0-4.145-8.206l-.746-1.457a958.667 958.667 0 0 0-2.043-3.977c-.953-2.125-.953-2.125-.953-4.41"/><path fill="#3c533f" d="M455.02 605.531c0 2.285 0 2.285-.762 4.57a78.78 78.78 0 0 1-2.285 2.286c-1.496 1.84-2.29 3.054-3.047 5.332h-2.285v2.285l-3.047-.762c1.761-2.144 3.52-4.285 5.285-6.426l1.52-1.855 1.449-1.762 1.343-1.633c1.067-1.273 1.067-1.273 1.829-2.035"/><path fill="#4d3635" d="m245.559 35.043 1.523.762-1.523 2.285c-2.73 1.312-5.399 2.45-8.38 3.047v1.523h-2.284v1.524l-4.57.761c3.054-2.57 6.257-4.664 9.663-6.715l1.563-.968c1.308-.79 2.656-1.512 4.008-2.219"/><path fill="#425745" d="M322.488 390.742h1.524l-.762 3.047h-1.523v1.524c-1.282.925-1.282.925-2.954 1.902-1.812 1.066-3.168 1.933-4.664 3.426l-.761-1.524c2.48-3.512 5.515-6.094 9.14-8.375"/><path fill="#4e4d45" d="m367.426 274.207 1.344.277c5.12 1.047 10.257 1.934 15.414 2.77l-2.286 1.523c-5.16.317-9.859-1.738-14.472-3.808Zm0 0"/><path fill="#503434" d="M159.492 105.879c0 2.285 0 2.285-.62 3.855-.903 1.477-.903 1.477-3.188 3-.91 1.559-.91 1.559-1.524 3.043h-1.523v2.285l-3.047.762c2.52-5.035 6.055-8.863 9.902-12.945"/><path fill="#5a4542" d="M428.36 147.008c8.913 4.683 8.913 4.683 12.187 7.617l-2.285.762a53.727 53.727 0 0 1-5.094-2.856c-.461-.277-.926-.55-1.398-.836-1.325-.82-1.325-.82-3.41-2.402Zm0 0"/><path fill="#454940" d="m272.98 428.063 1.524.761c-1.285 1.809-1.285 1.809-3.047 3.809a175.74 175.74 0 0 1-3.809 1.523l-1.093 1.524-1.192 1.523c-2.43.953-2.43.953-4.57 1.524 2.238-3.059 4.75-5.278 7.809-7.473l1.277-.942a448.54 448.54 0 0 1 3.101-2.25"/><path fill="#3c4135" d="m283.645 18.285 2.28.762-3.042.762v1.523c-1.113.258-2.223.512-3.336.762l-1.871.43c-1.649.331-1.649.331-3.172.331l-.762 1.524-2.285-1.524a852.06 852.06 0 0 1 5.95-2.332l1.702-.68c1.493-.573 3.012-1.07 4.536-1.558"/><path fill="#414438" d="m300.762 13.223 1.16.492-3.047.762V16l-2.188.285c-3.617.516-7.183 1.258-10.761 2 2.062-2.058 4.437-2.672 7.14-3.57l1.555-.547c2.164-.727 3.856-1.27 6.14-.945"/><path fill="#582e31" d="m226.52 46.469 1.52.761c-.712 1.38-.712 1.38-2.282 3.047-2.238.946-4.52 1.637-6.856 2.285 2.301-2.48 4.766-4.28 7.618-6.093m-9.141 6.093 1.523.762-2.285 2.285-2.285-.761Zm0 0"/><path fill="#44483a" d="M435.977 629.902c.761 2.285.761 2.285.523 3.86-.523 1.472-.523 1.472-2.047 2.996l-.762 1.523a56.873 56.873 0 0 1-3.808 1.524c1.117-2.367 2.437-4.496 3.902-6.664l1.246-1.844Zm0 0"/><path fill="#582f32" d="m323.25 156.148 1.523.762-6.855 6.856-2.285-.762Zm0 0"/><path fill="#53282b" d="m333.152 149.293 2.286.762a61.905 61.905 0 0 1-3.047 2.285h-1.524l-.762 2.285c-2.714.902-2.714.902-5.332 1.523 2.575-2.73 5.102-5.003 8.38-6.855"/><path fill="#524645" d="M241.75 451.676v2.285c-1.664 1.723-1.664 1.723-3.809 3.57l-2.14 1.864-1.668 1.418-1.524-.762c2.899-2.985 5.953-5.703 9.141-8.375"/><path fill="#441a24" d="M306.492 402.926h1.524c-.426 1.289-.426 1.289-1.524 3.047-1.699 1.386-3.492 2.609-5.332 3.808l-1.523-1.523c1.11-.89 2.218-1.781 3.332-2.664l1.875-1.5c.543-.387 1.09-.77 1.648-1.168"/><path fill="#52574e" d="M450.45 396.074c2.152.133 3.62.637 5.417 1.828a168.199 168.199 0 0 1 4.48 3.5l-.761 2.286c-1.524-1.122-3.047-2.25-4.566-3.38l-1.325-.972a143.27 143.27 0 0 1-3.246-2.5Zm0 0"/><path fill="#4f4f45" d="M99.32 230.027h.762c.168 4.61.137 8.61-1.523 12.95l-1.524.761c.235-1.715.473-3.425.715-5.14l.398-2.891c.301-1.945.641-3.789 1.172-5.68"/><path fill="#574b4a" d="m401.512 501.086 1.843.043 1.391.055v.761h-4.57v1.524l-6.09 1.523.762-2.285c2.234-1.496 4.007-1.7 6.664-1.621"/><path fill="#451e27" d="M231.086 460.05h1.523c-.62 1.68-1.332 2.872-2.64 4.098-1.137.938-2.29 1.856-3.45 2.758l-1.523-.761c1.828-2.418 3.516-4.461 6.09-6.094"/><path fill="#594843" d="M122.93 418.16c1.75 1.574 2.968 2.895 4.047 5l.523 1.856-.762 2.285c-.64-1.09-1.273-2.188-1.902-3.285l-1.07-1.848c-.836-1.723-.836-1.723-.836-4.008"/><path fill="#424e3e" d="m602.02 396.836 1.523.762c-.992 2.21-2.027 3.691-3.809 5.328l-1.285 1.289-1 .996c1.7-5.344 1.7-5.344 3.047-7.613Zm0 0"/><path fill="#3e121c" d="m298.875 409.02 1.523 1.523-1.855.621-1.953.902-.762 2.286c-1.57.523-1.57.523-3.047.761.73-.875 1.457-1.746 2.192-2.617l1.23-1.473c1.149-1.242 1.149-1.242 2.672-2.003"/><path fill="#454639" d="m419.98 651.992 1.524.762c-.477 1.332-.477 1.332-1.524 3.047-2.378 1.715-2.378 1.715-4.57 3.047 1.164-2.618 2.742-4.66 4.57-6.856"/><path fill="#525a4c" d="m446.64 615.434 3.048.761-.762 1.524h-2.285v2.285l-3.047-.762Zm0 0"/><path fill="#483132" d="M226.52 573.54c2.214 1.69 3.77 2.995 5.328 5.331l-.762 2.285a541.52 541.52 0 0 1-2.285-2.949l-1.281-1.66-1-1.485Zm0 0"/><path fill="#3e121c" d="M328.582 386.172h1.523c-.523 1.379-.523 1.379-1.523 3.047-2 1.332-2 1.332-3.809 2.285v-2.285c1.809-1.668 1.809-1.668 3.809-3.047"/><path fill="#533c3b" d="m154.16 112.734.762 2.282-2.285.761v2.285l-3.047.762c2.23-4.09 2.23-4.09 3.047-5.332Zm0 0"/><path fill="#4a2830" d="M337.723 722.066c.879.692 1.75 1.387 2.617 2.094l1.473 1.18c1.238 1.297 1.238 1.297 1.789 2.972l.21 1.372-3.804-3.809-1.383-1.285-.902-1Zm0 0"/><path fill="#625955" d="m483.2 568.973 2.284.757c-1.761 1.907-1.761 1.907-3.808 3.81h-2.285Zm0 0"/><path fill="#454539" d="m408.555 666.465 1.523 2.285-5.332 3.809c1.047-2.25 2.277-4.145 3.809-6.094"/><path fill="#44614c" d="M312.586 399.879v2.285l-4.57 1.524-.762-1.524c3.617-2.285 3.617-2.285 5.332-2.285"/><path fill="#522629" d="m440.547 623.813 1.523 1.523c-1.68 2.52-2.465 3.133-5.332 4.566Zm0 0"/><path fill="#5d4040" d="M125.215 156.148h.762c.144 1.762.144 1.762 0 3.809-1.141 1.379-1.141 1.379-2.286 2.285l-.761-2.285c1.047-2.047 1.047-2.047 2.285-3.809"/></svg>